<svg width="21" height="24" viewBox="0 0 21 24" fill="none" xmlns="http://www.w3.org/2000/svg">
  <path d="M10.8567 14.8774H13.4678C13.7505 14.8774 13.9817 14.6461 13.9817 14.3634C13.9817 14.0808 13.7505 13.8495 13.4678 13.8495H11.3707V10.4984C11.3707 10.2157 11.1394 9.98444 10.8567 9.98444C10.5741 9.98444 10.3428 10.2157 10.3428 10.4984V14.3584C10.3428 14.6411 10.5741 14.8775 10.8567 14.8775V14.8774Z" fill="url(#alarm-toolbar-background)"/>
  <path d="M20.566 7.51718C20.7665 7.31673 20.7665 6.98779 20.5609 6.79247L18.5409 4.79307C18.3405 4.59262 18.0115 4.59262 17.8162 4.79821C17.6158 4.99867 17.6158 5.32761 17.8213 5.52292L19.8413 7.52232C19.9389 7.61998 20.0726 7.67138 20.2011 7.67138C20.3347 7.67138 20.4683 7.61998 20.566 7.51718L20.566 7.51718Z" fill="url(#alarm-toolbar-background)" stroke="#A1B0CA" stroke-width="0.25"/>
  <path fill-rule="evenodd" clip-rule="evenodd" d="M19.9492 14.1014C19.9492 19.0716 15.8682 23.1165 10.857 23.1166C5.8457 23.1166 1.76465 19.0716 1.76465 14.1014C1.76465 9.32137 5.54228 5.39961 10.2915 5.10663V2.02795H9.29952C9.01684 2.02795 8.78554 1.79666 8.78554 1.51397C8.78554 1.23129 9.01683 1 9.29952 1H12.4143C12.6969 1 12.9282 1.23129 12.9282 1.51397C12.9282 1.79666 12.6969 2.02795 12.4143 2.02795H11.3195V5.09637C16.12 5.33795 19.9492 9.28532 19.9492 14.1014ZM18.9213 14.1016C18.9213 9.69663 15.3029 6.11426 10.8568 6.11426C6.41078 6.11426 2.79236 9.69663 2.79236 14.1016C2.79236 18.5066 6.41078 22.089 10.8568 22.089C15.3029 22.089 18.9213 18.5066 18.9213 14.1016Z" fill="url(#alarm-toolbar-background)"/>
  <path d="M10.857 23.1166L10.857 23.2416L10.857 23.2416L10.857 23.1166ZM10.2915 5.10663L10.2992 5.23139L10.4165 5.22416V5.10663H10.2915ZM10.2915 2.02795H10.4165V1.90295H10.2915V2.02795ZM11.3195 2.02795V1.90295H11.1945V2.02795H11.3195ZM11.3195 5.09637H11.1945V5.21524L11.3132 5.22121L11.3195 5.09637ZM10.857 23.2416C15.9363 23.2415 20.0742 19.1416 20.0742 14.1014H19.8242C19.8242 19.0015 15.8002 22.9915 10.857 22.9916L10.857 23.2416ZM1.63965 14.1014C1.63965 19.1417 5.77768 23.2416 10.857 23.2416V22.9916C5.91372 22.9916 1.88965 19.0016 1.88965 14.1014H1.63965ZM10.2838 4.98187C5.47016 5.27882 1.63965 9.25383 1.63965 14.1014H1.88965C1.88965 9.38891 5.6144 5.52039 10.2992 5.23139L10.2838 4.98187ZM10.1665 2.02795V5.10663H10.4165V2.02795H10.1665ZM9.29952 2.15295H10.2915V1.90295H9.29952V2.15295ZM8.66054 1.51397C8.66054 1.86569 8.9478 2.15295 9.29952 2.15295V1.90295C9.08587 1.90295 8.91054 1.72762 8.91054 1.51397H8.66054ZM9.29952 0.875C8.9478 0.875 8.66054 1.16226 8.66054 1.51397H8.91054C8.91054 1.30033 9.08587 1.125 9.29952 1.125V0.875ZM12.4143 0.875H9.29952V1.125H12.4143V0.875ZM13.0532 1.51397C13.0532 1.16225 12.766 0.875 12.4143 0.875V1.125C12.6279 1.125 12.8032 1.30033 12.8032 1.51397H13.0532ZM12.4143 2.15295C12.766 2.15295 13.0532 1.86569 13.0532 1.51397H12.8032C12.8032 1.72762 12.6279 1.90295 12.4143 1.90295V2.15295ZM11.3195 2.15295H12.4143V1.90295H11.3195V2.15295ZM11.4445 5.09637V2.02795H11.1945V5.09637H11.4445ZM20.0742 14.1014C20.0742 9.21741 16.1915 5.21639 11.3257 4.97153L11.3132 5.22121C16.0485 5.45951 19.8242 9.35322 19.8242 14.1014H20.0742ZM10.8568 6.23926C15.235 6.23926 18.7963 9.76681 18.7963 14.1016H19.0463C19.0463 9.62645 15.3708 5.98926 10.8568 5.98926V6.23926ZM2.91736 14.1016C2.91736 9.76681 6.47867 6.23926 10.8568 6.23926V5.98926C6.34289 5.98926 2.66736 9.62645 2.66736 14.1016H2.91736ZM10.8568 21.964C6.47867 21.964 2.91736 18.4365 2.91736 14.1016H2.66736C2.66736 18.5768 6.34289 22.214 10.8568 22.214V21.964ZM18.7963 14.1016C18.7963 18.4365 15.235 21.964 10.8568 21.964V22.214C15.3708 22.214 19.0463 18.5768 19.0463 14.1016H18.7963Z" fill="url(#alarm-toolbar-background)"/>
  <path d="M3.89759 4.79319C3.69714 4.59274 3.37333 4.5876 3.17288 4.78805L1.15293 6.78745C0.952481 6.9879 0.947342 7.31171 1.14779 7.51216C1.25059 7.61495 1.37909 7.66635 1.51272 7.66635C1.64121 7.66635 1.77484 7.61496 1.8725 7.5173L3.89245 5.5179C4.0929 5.32259 4.0929 4.99364 3.89759 4.79319L3.89759 4.79319Z" fill="url(#alarm-toolbar-background)" stroke="#A1B0CA" stroke-width="0.25"/>
  <defs>
    <linearGradient id="alarm-toolbar-background" x1="30.7696" y1="15.3968" x2="15.1037" y2="-7.83294" gradientUnits="userSpaceOnUse">
      <stop offset="0.000950169" class="start_color"/>
      <stop offset="1" class="stop_color"/>
    </linearGradient>
  </defs>
</svg>
