<svg width="22" height="21" viewBox="0 0 22 21" fill="none" xmlns="http://www.w3.org/2000/svg">
  <path d="M1.25666 4.64067C1.0984 4.95719 0.676364 5.0627 0.359847 4.90443C0.0433306 4.74617 -0.114939 4.32413 0.0960871 4.00761C0.834634 2.58326 1.83696 1.37088 3.04953 0.315752C3.36605 0.104737 3.78808 0.157492 3.9991 0.421261C4.26287 0.685021 4.21012 1.10705 3.8936 1.37083C2.83851 2.26765 1.94257 3.37462 1.25686 4.64077L1.25666 4.64067Z" fill="url(#clock-toolbar-background)"/>
  <path d="M17.8699 1.37071C17.6061 1.10695 17.5533 0.684915 17.7644 0.421133C18.0281 0.157373 18.4501 0.104616 18.7139 0.315625C19.9273 1.37071 20.9815 2.58315 21.7201 4.00749C21.8783 4.324 21.7728 4.74603 21.4563 4.9043C21.1398 5.06256 20.7178 4.95706 20.5595 4.64054C19.8737 3.37445 18.9769 2.26737 17.8698 1.3706L17.8699 1.37071Z" fill="url(#clock-toolbar-background)"/>
  <path fill-rule="evenodd" clip-rule="evenodd" d="M20.6649 9.8096C20.6649 4.37778 16.288 0 10.908 0H10.9087C5.4769 0 1.09912 4.37691 1.09912 9.8096C1.09912 12.7101 2.36528 15.2943 4.36906 17.0879L2.62819 18.8815C2.36443 19.0926 2.36443 19.5673 2.62819 19.8311C2.89197 20.0421 3.314 20.0421 3.57776 19.8311L5.4233 17.9328C7.00512 18.9879 8.85151 19.5682 10.908 19.5682C12.9127 19.5682 14.8109 18.9879 16.3407 17.9328L18.239 19.8311C18.5028 20.0421 18.9248 20.0421 19.1886 19.8311C19.4523 19.5673 19.4523 19.0925 19.1886 18.8815L17.395 17.0879C19.3988 15.2944 20.6649 12.7101 20.6649 9.8096ZM2.41644 9.81041C2.41644 5.11635 6.21373 1.31885 10.908 1.31885C15.5494 1.31885 19.3469 5.11613 19.3469 9.81041C19.3469 14.4518 15.5496 18.2493 10.908 18.2493C6.21395 18.2493 2.41644 14.452 2.41644 9.81041Z" fill="url(#clock-toolbar-background)"/>
  <path d="M15.1802 9.12388C15.5494 9.12388 15.866 9.4404 15.866 9.80967C15.866 10.1789 15.5494 10.4955 15.1802 10.4955L10.908 10.4427C10.6443 10.4427 10.4332 10.3372 10.3277 10.1789L7.37429 5.74845C7.16327 5.43194 7.21603 5.00991 7.53255 4.79888C7.84907 4.64062 8.2711 4.69337 8.48212 5.0099L11.2245 9.1239L15.1802 9.12388Z" fill="url(#clock-toolbar-background)"/>
  <defs>
    <linearGradient id="clock-toolbar-background" x1="30.7696" y1="15.3968" x2="15.1037" y2="-7.83294" gradientUnits="userSpaceOnUse">
      <stop offset="0.000950169" class="start_color"/>
      <stop offset="1" class="stop_color"/>
    </linearGradient>
  </defs>
</svg>
