<svg width="22" height="24" viewBox="0 0 22 24" fill="none" xmlns="http://www.w3.org/2000/svg">
  <path fill-rule="evenodd" clip-rule="evenodd" d="M8.45943 1.9948H8.46029H13.4318C13.706 1.9948 13.9288 1.77202 13.9288 1.49697C13.9288 1.22278 13.706 1 13.4318 1H8.45943C8.18524 1 7.96246 1.22278 7.96246 1.49697C7.96246 1.77202 8.18524 1.9948 8.45943 1.9948ZM3.91473 19.9649C1.47527 17.5272 0.473471 13.9995 1.2671 10.6431C2.06056 7.28764 4.53594 4.58255 7.80918 3.4952C11.0815 2.40699 14.6838 3.09248 17.3281 5.3066L18.526 4.10871L17.7883 3.37095V3.3701C17.586 3.16616 17.5869 2.83713 17.79 2.63405C17.993 2.43097 18.3221 2.43011 18.526 2.63233L20.7393 4.84564C20.9415 5.04957 20.9407 5.37861 20.7376 5.58169C20.5345 5.78477 20.2055 5.78562 20.0016 5.5834L19.2638 4.84564L18.0916 6.01869C19.9647 7.8935 21.011 10.4392 20.9998 13.0894C20.9878 15.7397 19.9185 18.2761 18.0291 20.1345C16.1397 21.9939 13.5862 23.0212 10.936 22.9896C8.28573 22.957 5.75721 21.8688 3.91308 19.9649L3.91473 19.9649ZM1.99622 12.9334C1.99622 15.3069 2.93877 17.5827 4.6173 19.2614C6.29588 20.94 8.57164 21.8834 10.9462 21.8834C13.3196 21.8834 15.5954 20.94 17.2741 19.2614C18.9529 17.5829 19.8952 15.3071 19.8952 12.9334C19.8952 10.5591 18.9527 8.2833 17.2741 6.60457C15.5956 4.92599 13.3198 3.98348 10.9462 3.98348C8.57186 3.98348 6.29604 4.92603 4.6173 6.60457C2.93873 8.28315 1.99622 10.5589 1.99622 12.9334ZM10.4482 11.0063C9.56992 11.2334 8.95641 12.026 8.95641 12.9334C8.95726 13.6918 9.38911 14.385 10.0703 14.7183C10.7515 15.0525 11.5638 14.9693 12.1636 14.5049C12.7634 14.0396 13.0471 13.2745 12.8937 12.5307C12.7403 11.7878 12.1773 11.1966 11.443 11.0072V6.46918C11.443 6.19499 11.2202 5.97221 10.946 5.97221C10.671 5.97221 10.4482 6.19499 10.4482 6.46918V11.0063ZM9.95123 12.9334C9.95123 13.3353 10.1937 13.6978 10.5647 13.852C10.9366 14.0054 11.3642 13.9205 11.6487 13.6361C11.9332 13.3516 12.018 12.924 11.8646 12.5521C11.7104 12.1811 11.3479 11.9386 10.946 11.9386C10.3968 11.9386 9.95123 12.3842 9.95123 12.9334Z" fill="url(#timer-toolbar-background)"/>
  <path d="M1.2671 10.6431L1.14546 10.6144L1.14546 10.6144L1.2671 10.6431ZM3.91473 19.9649L3.91618 20.0899L4.2132 20.0864L4.00309 19.8765L3.91473 19.9649ZM7.80918 3.4952L7.84858 3.61382L7.84862 3.61381L7.80918 3.4952ZM17.3281 5.3066L17.2479 5.40244L17.3356 5.47589L17.4165 5.39498L17.3281 5.3066ZM18.526 4.10871L18.6144 4.1971L18.7028 4.10871L18.6144 4.02033L18.526 4.10871ZM17.7883 3.37095H17.6633V3.42273L17.6999 3.45934L17.7883 3.37095ZM17.7883 3.3701H17.9133V3.31863L17.877 3.28208L17.7883 3.3701ZM18.526 2.63233L18.6144 2.54394L18.614 2.54357L18.526 2.63233ZM20.7393 4.84564L20.8281 4.75762L20.8277 4.75725L20.7393 4.84564ZM20.7376 5.58169L20.826 5.67007L20.826 5.67007L20.7376 5.58169ZM20.0016 5.5834L19.9132 5.67179L19.9135 5.67216L20.0016 5.5834ZM19.2638 4.84564L19.3522 4.75725L19.2638 4.66883L19.1754 4.75728L19.2638 4.84564ZM18.0916 6.01869L18.0032 5.93033L17.9149 6.01868L18.0032 6.10704L18.0916 6.01869ZM20.9998 13.0894L21.1248 13.09L21.1248 13.0899L20.9998 13.0894ZM18.0291 20.1345L17.9414 20.0454L17.9414 20.0454L18.0291 20.1345ZM10.936 22.9896L10.9345 23.1146L10.9345 23.1146L10.936 22.9896ZM3.91308 19.9649L3.91163 19.8399L3.62126 19.8433L3.8233 20.0519L3.91308 19.9649ZM4.6173 19.2614L4.52891 19.3498L4.52892 19.3498L4.6173 19.2614ZM17.2741 6.60457L17.3625 6.51619L17.3625 6.51618L17.2741 6.60457ZM4.6173 6.60457L4.52892 6.51618L4.52892 6.51618L4.6173 6.60457ZM8.95641 12.9334L8.83141 12.9334L8.83141 12.9336L8.95641 12.9334ZM10.4482 11.0063L10.4795 11.1274L10.5732 11.1031V11.0063H10.4482ZM10.0703 14.7183L10.1254 14.6061L10.1253 14.606L10.0703 14.7183ZM12.1636 14.5049L12.2402 14.6038L12.2402 14.6037L12.1636 14.5049ZM12.8937 12.5307L13.0161 12.5055L13.0161 12.5054L12.8937 12.5307ZM11.443 11.0072H11.318V11.1041L11.4118 11.1283L11.443 11.0072ZM10.5647 13.852L10.5168 13.9674L10.5171 13.9675L10.5647 13.852ZM9.95123 12.9334L10.0762 12.9334L10.0762 12.9334L9.95123 12.9334ZM11.8646 12.5521L11.9802 12.5045L11.98 12.5041L11.8646 12.5521ZM8.46029 1.8698H8.45943V2.1198H8.46029V1.8698ZM13.4318 1.8698H8.46029V2.1198H13.4318V1.8698ZM13.8038 1.49697C13.8038 1.70313 13.6368 1.8698 13.4318 1.8698V2.1198C13.7752 2.1198 14.0538 1.84092 14.0538 1.49697H13.8038ZM13.4318 1.125C13.637 1.125 13.8038 1.29181 13.8038 1.49697H14.0538C14.0538 1.15374 13.775 0.875 13.4318 0.875V1.125ZM8.45943 1.125H13.4318V0.875H8.45943V1.125ZM8.08746 1.49697C8.08746 1.29181 8.25427 1.125 8.45943 1.125V0.875C8.1162 0.875 7.83746 1.15374 7.83746 1.49697H8.08746ZM8.45943 1.8698C8.25441 1.8698 8.08746 1.70313 8.08746 1.49697H7.83746C7.83746 1.84092 8.11606 2.1198 8.45943 2.1198V1.8698ZM1.14546 10.6144C0.341851 14.0129 1.35624 17.585 3.82637 20.0533L4.00309 19.8765C1.5943 17.4694 0.60509 13.9861 1.38875 10.6719L1.14546 10.6144ZM7.76977 3.37657C4.4554 4.47759 1.94889 7.21669 1.14546 10.6144L1.38875 10.6719C2.17222 7.3586 4.61649 4.68751 7.84858 3.61382L7.76977 3.37657ZM17.4084 5.21076C14.7308 2.96881 11.0832 2.2747 7.76973 3.37658L7.84862 3.61381C11.0798 2.53929 14.6368 3.21616 17.2479 5.40244L17.4084 5.21076ZM18.4376 4.02033L17.2397 5.21821L17.4165 5.39498L18.6144 4.1971L18.4376 4.02033ZM17.6999 3.45934L18.4376 4.1971L18.6144 4.02033L17.8766 3.28257L17.6999 3.45934ZM17.6633 3.3701V3.37095H17.9133V3.3701H17.6633ZM17.7016 2.54566C17.4499 2.79736 17.4488 3.20525 17.6995 3.45811L17.877 3.28208C17.7233 3.12708 17.7239 2.8769 17.8784 2.72244L17.7016 2.54566ZM18.614 2.54357C18.3612 2.29284 17.9533 2.29396 17.7016 2.54566L17.8784 2.72244C18.0328 2.56798 18.283 2.56739 18.438 2.72109L18.614 2.54357ZM20.8277 4.75725L18.6144 2.54395L18.4376 2.72072L20.6509 4.93402L20.8277 4.75725ZM20.826 5.67007C21.0777 5.41837 21.0788 5.01048 20.8281 4.75762L20.6506 4.93365C20.8043 5.08866 20.8037 5.33884 20.6492 5.4933L20.826 5.67007ZM19.9135 5.67216C20.1664 5.92289 20.5743 5.92178 20.826 5.67007L20.6492 5.4933C20.4948 5.64776 20.2446 5.64835 20.0896 5.49464L19.9135 5.67216ZM19.1754 4.93403L19.9132 5.67179L20.0899 5.49501L19.3522 4.75725L19.1754 4.93403ZM18.18 6.10705L19.3522 4.934L19.1754 4.75728L18.0032 5.93033L18.18 6.10705ZM21.1248 13.0899C21.1362 10.4064 20.0767 7.82875 18.18 5.93034L18.0032 6.10704C19.8527 7.95826 20.8859 10.4719 20.8748 13.0889L21.1248 13.0899ZM18.1167 20.2236C20.0299 18.3418 21.1127 15.7735 21.1248 13.09L20.8748 13.0888C20.863 15.7058 19.8071 18.2103 17.9414 20.0454L18.1167 20.2236ZM10.9345 23.1146C13.6181 23.1466 16.2036 22.1063 18.1168 20.2236L17.9414 20.0454C16.0758 21.8814 13.5544 22.8958 10.9375 22.8646L10.9345 23.1146ZM3.8233 20.0519C5.69062 21.9798 8.25092 23.0816 10.9345 23.1146L10.9375 22.8646C8.32053 22.8325 5.8238 21.7579 4.00287 19.8779L3.8233 20.0519ZM3.91328 19.8399L3.91163 19.8399L3.91453 20.0899L3.91618 20.0899L3.91328 19.8399ZM4.7057 19.173C3.0506 17.5177 2.12122 15.2737 2.12122 12.9334H1.87122C1.87122 15.34 2.82694 17.6476 4.52891 19.3498L4.7057 19.173ZM10.9462 21.7584C8.60481 21.7584 6.36084 20.8282 4.70569 19.173L4.52892 19.3498C6.23092 21.0518 8.53846 22.0084 10.9462 22.0084V21.7584ZM17.1858 19.173C15.5305 20.8282 13.2864 21.7584 10.9462 21.7584V22.0084C13.3528 22.0084 15.6604 21.0518 17.3625 19.3498L17.1858 19.173ZM19.7702 12.9334C19.7702 15.2739 18.841 17.5179 17.1858 19.173L17.3625 19.3498C19.0647 17.6478 20.0202 15.3402 20.0202 12.9334H19.7702ZM17.1858 6.69295C18.8408 8.34824 19.7702 10.5923 19.7702 12.9334H20.0202C20.0202 10.526 19.0645 8.21836 17.3625 6.51619L17.1858 6.69295ZM10.9462 4.10848C13.2867 4.10848 15.5306 5.03782 17.1858 6.69296L17.3625 6.51618C15.6605 4.81416 13.353 3.85848 10.9462 3.85848V4.10848ZM4.70569 6.69296C6.36097 5.03787 8.605 4.10848 10.9462 4.10848V3.85848C8.53871 3.85848 6.2311 4.8142 4.52892 6.51618L4.70569 6.69296ZM2.12122 12.9334C2.12122 10.592 3.05056 8.34809 4.70569 6.69296L4.52892 6.51618C2.82689 8.21821 1.87122 10.5258 1.87122 12.9334H2.12122ZM9.08141 12.9334C9.08141 12.083 9.65641 11.3402 10.4795 11.1274L10.4169 10.8853C9.48343 11.1267 8.83141 11.9691 8.83141 12.9334H9.08141ZM10.1253 14.606C9.487 14.2937 9.08221 13.6441 9.08141 12.9333L8.83141 12.9336C8.83232 13.7394 9.29121 14.4762 10.0154 14.8306L10.1253 14.606ZM12.0871 14.4061C11.525 14.8413 10.7637 14.9192 10.1254 14.6061L10.0153 14.8305C10.7393 15.1857 11.6027 15.0973 12.2402 14.6038L12.0871 14.4061ZM12.7712 12.556C12.915 13.2529 12.6492 13.97 12.087 14.4062L12.2402 14.6037C12.8776 14.1093 13.1791 13.296 13.0161 12.5055L12.7712 12.556ZM11.4118 11.1283C12.0999 11.3057 12.6275 11.8598 12.7713 12.556L13.0161 12.5054C12.8531 11.7159 12.2548 11.0875 11.4742 10.8862L11.4118 11.1283ZM11.318 6.46918V11.0072H11.568V6.46918H11.318ZM10.946 6.09721C11.1512 6.09721 11.318 6.26402 11.318 6.46918H11.568C11.568 6.12595 11.2893 5.84721 10.946 5.84721V6.09721ZM10.5732 6.46918C10.5732 6.26416 10.7399 6.09721 10.946 6.09721V5.84721C10.6021 5.84721 10.3232 6.12581 10.3232 6.46918H10.5732ZM10.5732 11.0063V6.46918H10.3232V11.0063H10.5732ZM10.6127 13.7366C10.2882 13.6017 10.0762 13.2847 10.0762 12.9334H9.82623C9.82623 13.3859 10.0992 13.7938 10.5168 13.9674L10.6127 13.7366ZM11.5603 13.5477C11.3116 13.7963 10.9377 13.8706 10.6124 13.7364L10.5171 13.9675C10.9355 14.1401 11.4168 14.0447 11.7371 13.7244L11.5603 13.5477ZM11.749 12.5998C11.8832 12.9251 11.809 13.299 11.5603 13.5477L11.7371 13.7244C12.0573 13.4042 12.1527 12.9229 11.9802 12.5045L11.749 12.5998ZM10.946 12.0636C11.2973 12.0636 11.6143 12.2756 11.7492 12.6001L11.98 12.5041C11.8065 12.0866 11.3985 11.8136 10.946 11.8136V12.0636ZM10.0762 12.9334C10.0762 12.4532 10.4658 12.0636 10.946 12.0636V11.8136C10.3278 11.8136 9.82623 12.3151 9.82623 12.9334L10.0762 12.9334Z" fill="url(#timer-toolbar-background)"/>
  <defs>
    <linearGradient id="timer-toolbar-background" x1="30.7696" y1="15.3968" x2="15.1037" y2="-7.83294" gradientUnits="userSpaceOnUse">
      <stop offset="0.000950169" class="start_color"/>
      <stop offset="1" class="stop_color"/>
    </linearGradient>
  </defs>
</svg>
