<svg width="20" height="20" viewBox="0 0 20 20" fill="none" xmlns="http://www.w3.org/2000/svg">
  <path fill="url(#world-toolbar-background)" fill-rule="evenodd" clip-rule="evenodd" d="M10 0C4.45252 0 0 4.52515 0 10C0 15.5475 4.45252 20 10 20C15.5475 20 20 15.5475 20 10C20.0014 4.52515 15.4749 0 10 0ZM5.47485 10C5.47485 8.83232 5.62028 7.66465 5.83984 6.64238H9.19746V13.2848H5.83984C5.62028 12.3367 5.47485 11.2417 5.47485 9.99993V10ZM10.73 1.67932C11.8977 2.04431 12.9926 3.35886 13.6499 5.25652H10.73V1.67932ZM9.27002 1.67932V5.25652H6.3501C7.00737 3.43014 8.02964 2.11702 9.27002 1.67932V1.67932ZM9.27002 14.819V18.3962C8.10234 18.0312 7.00737 16.7166 6.3501 14.819H9.27002ZM10.73 18.3947V14.8175H13.6499C12.9199 16.6439 11.8977 17.957 10.73 18.3947ZM10.73 13.359V6.71651H14.0876C14.3072 7.73878 14.4526 8.90645 14.4526 10.0741C14.4526 11.2418 14.3072 12.4095 14.0876 13.4317H10.73V13.359ZM15.5475 6.71505H17.8101C18.2478 7.73732 18.4674 8.83229 18.4674 10.0727C18.4674 11.2403 18.2478 12.408 17.8101 13.4303H15.5475C15.767 12.408 15.9125 11.2403 15.9125 10.0727C15.9125 8.83229 15.767 7.73732 15.5475 6.71505ZM17.0074 5.25509H15.1825C14.8175 4.16012 14.3798 3.21056 13.7952 2.40788C15.1098 3.06515 16.2048 4.01467 17.0074 5.25509ZM6.13183 2.4093C5.54727 3.21199 5.10957 4.16154 4.74458 5.25651H2.91963C3.72232 4.01471 4.81729 3.06515 6.13183 2.4093ZM2.11694 6.71509H4.37959C4.16003 7.73735 4.0146 8.90503 4.0146 10.0727C4.0146 11.2404 4.16003 12.3354 4.37959 13.4303H2.11694C1.67925 12.4081 1.45967 11.3131 1.45967 10.0727C1.45967 8.83232 1.67781 7.73735 2.11694 6.71509V6.71509ZM2.91963 14.819H4.74458C5.10957 15.9139 5.54727 16.8635 6.13183 17.6662C4.81729 17.0089 3.72232 16.0594 2.91963 14.819V14.819ZM13.7967 17.6648C14.3813 16.8621 14.819 15.9125 15.184 14.8175H17.0089C16.2048 16.0593 15.1098 17.0089 13.7967 17.6648Z"/>
  <defs>
    <linearGradient id="world-toolbar-background" x1="30.7696" y1="15.3968" x2="15.1037" y2="-7.83294" gradientUnits="userSpaceOnUse">
      <stop offset="0.000950169" class="start_color"/>
      <stop offset="1" class="stop_color"/>
    </linearGradient>
  </defs>
</svg>
