<svg width="16" height="16" viewBox="0 0 16 16" fill="none" xmlns="http://www.w3.org/2000/svg">
  <path fill-rule="evenodd" clip-rule="evenodd" d="M8 0C7.74731 0 7.54286 0.204464 7.54286 0.457143V7.54286H0.457143C0.204457 7.54286 0 7.74732 0 8C0 8.25268 0.204464 8.45714 0.457143 8.45714H7.54286V15.5429C7.54286 15.7955 7.74732 16 8 16C8.25268 16 8.45714 15.7955 8.45714 15.5429V8.45714H15.5429C15.7955 8.45714 16 8.25268 16 8C16 7.74732 15.7955 7.54286 15.5429 7.54286H8.45714V0.457143C8.45714 0.204457 8.25268 0 8 0Z" fill="white"/>
</svg>
