<svg width="24" height="22" viewBox="0 0 24 22" fill="none" xmlns="http://www.w3.org/2000/svg">
  <path fill-rule="evenodd" clip-rule="evenodd" d="M19.628 17.8667H23.1957C23.6385 17.8667 23.9968 18.225 23.9957 18.6667C23.9957 19.1083 23.6374 19.4667 23.1957 19.4667H19.628C19.2728 20.8458 18.0238 21.8667 16.5333 21.8667C15.0428 21.8667 13.7949 20.8458 13.4387 19.4667H0.8C0.358347 19.4667 0 19.1083 0 18.6667C0 18.225 0.358347 17.8667 0.8 17.8667H13.4387C13.7939 16.4875 15.0428 15.4667 16.5333 15.4667C18.0238 15.4667 19.2718 16.4875 19.628 17.8667ZM14.9333 18.6667C14.9333 19.549 15.651 20.2667 16.5333 20.2667C17.4156 20.2667 18.1333 19.549 18.1333 18.6667C18.1333 17.7844 17.4156 17.0667 16.5333 17.0667C15.651 17.0667 14.9333 17.7844 14.9333 18.6667Z" fill="#A1B0CA"/>
  <path fill-rule="evenodd" clip-rule="evenodd" d="M11.0947 10.1333H23.2C23.6417 10.1333 24 10.4917 24 10.9333C24 11.375 23.6417 11.7333 23.2 11.7333H11.0947C10.7395 13.1125 9.49051 14.1333 8 14.1333C6.50949 14.1333 5.26157 13.1125 4.90533 11.7333H0.8C0.358347 11.7333 0 11.375 0 10.9333C0 10.4917 0.358347 10.1333 0.8 10.1333H4.90533C5.26053 8.75416 6.50949 7.73333 8 7.73333C9.49051 7.73333 10.7384 8.75416 11.0947 10.1333ZM6.4 10.9333C6.4 11.8156 7.11771 12.5333 8 12.5333C8.88229 12.5333 9.6 11.8156 9.6 10.9333C9.6 10.051 8.88229 9.33333 8 9.33333C7.11771 9.33333 6.4 10.051 6.4 10.9333Z" fill="#A1B0CA"/>
  <path fill-rule="evenodd" clip-rule="evenodd" d="M13.4387 4H0.8C0.358347 4 0 3.64165 0 3.2C0 2.75835 0.358347 2.4 0.8 2.4H13.4387C13.7939 1.02083 15.0428 0 16.5333 0C18.0238 0 19.2728 1.02083 19.628 2.4H23.2C23.6417 2.4 24 2.75835 24 3.2C24 3.64165 23.6417 4 23.2 4H19.628C19.2728 5.37917 18.0238 6.4 16.5333 6.4C15.0428 6.4 13.7949 5.37917 13.4387 4ZM18.1333 3.2C18.1333 2.31771 17.4156 1.6 16.5333 1.6C15.651 1.6 14.9333 2.31771 14.9333 3.2C14.9333 4.08229 15.651 4.8 16.5333 4.8C17.4156 4.8 18.1333 4.08229 18.1333 3.2Z" fill="#A1B0CA"/>
</svg>
