<svg width="20" height="22" viewBox="0 0 20 22" fill="none" xmlns="http://www.w3.org/2000/svg">
  <path fill-rule="evenodd" clip-rule="evenodd" d="M12.8072 0.0249118C12.6439 -0.0376434 12.4494 0.0208101 12.3452 0.16438C12.239 0.311026 12.241 0.514068 12.3482 0.657644C13.7223 2.50458 14.4479 4.70846 14.4479 7.02999C14.4479 12.8353 9.83165 17.5587 4.15812 17.5587C2.91637 17.5587 1.69866 17.3331 0.539964 16.887C0.377603 16.8265 0.184178 16.8849 0.0789325 17.0275C-0.0273029 17.1731 -0.0263023 17.3761 0.0819393 17.5207C2.20064 20.3676 5.41886 22 8.90847 22C15.0241 22 20 16.9093 20 10.6517C20.001 5.94771 17.1095 1.67742 12.8071 0.0245469L12.8072 0.0249118Z" fill="url(#paint0_linear)"/>
  <defs>
    <linearGradient id="paint0_linear" x1="27.1542" y1="41.6623" x2="29.9693" y2="1.31461" gradientUnits="userSpaceOnUse">
      <stop offset="0.000950169" stop-color="#FAA361"/>
      <stop offset="1" stop-color="#FF97B3"/>
    </linearGradient>
  </defs>
</svg>
