<svg width="24" height="25" viewBox="0 0 24 25" fill="none" xmlns="http://www.w3.org/2000/svg">
  <path fill-rule="evenodd" clip-rule="evenodd" d="M15.5559 0.0985325C15.3016 0.217611 15.1039 0.432647 15.0079 0.697387L14.2946 2.69169C14.0946 3.242 14.3778 3.85012 14.9281 4.05011C15.4784 4.25009 16.0866 3.96687 16.2865 3.41656L17.0149 1.42226C17.1097 1.15636 17.0935 0.862713 16.9721 0.608361C16.8507 0.352861 16.6322 0.157489 16.3663 0.0638455C16.1028 -0.0321092 15.8103 -0.0193916 15.5559 0.0985325ZM6.13241 1.90206L7.02031 3.82236C7.12782 4.09289 7.34169 4.30677 7.61224 4.41429C7.88161 4.52181 8.18451 4.51372 8.4481 4.39117C8.71285 4.26978 8.91516 4.04433 9.00765 3.76917C9.1013 3.49286 9.07702 3.19112 8.9406 2.93446L8.0527 1.01069C7.93594 0.755191 7.7209 0.556326 7.45731 0.45922C7.19371 0.362108 6.90238 0.373669 6.64687 0.492747C6.11622 0.740169 5.88617 1.37024 6.13241 1.90206ZM18.3436 9.04156C17.5597 7.35921 16.1375 6.05742 14.3926 5.42181C12.6477 4.78727 10.7217 4.87123 9.03892 5.65624C7.35841 6.44333 6.05737 7.86396 5.42268 9.60729C4.78796 11.3517 4.87085 13.2761 5.65278 14.9583C6.43673 16.6418 7.85888 17.9436 9.60377 18.5781C11.3487 19.2126 13.2747 19.1287 14.9574 18.3448C16.6402 17.5599 17.9423 16.1392 18.5781 14.3937C19.2128 12.6493 19.1288 10.7238 18.3436 9.04156ZM7.88914 10.5078C8.28486 9.41924 9.09721 8.53335 10.1464 8.04425L10.1509 8.04426C11.1993 7.55896 12.3979 7.50759 13.4842 7.90344C14.5697 8.29928 15.4543 9.11 15.9442 10.1567C16.4332 11.2063 16.4855 12.4061 16.0898 13.4947C15.694 14.5823 14.8826 15.4682 13.8334 15.9573C12.7842 16.4473 11.5837 16.4996 10.4964 16.1028C9.40922 15.707 8.52267 14.8944 8.03373 13.8458C7.54477 12.7962 7.49342 11.5954 7.88914 10.5078ZM1.08823 17.9501C1.35298 18.046 1.64547 18.0333 1.89982 17.9131L3.82013 17.0252C4.08025 16.9107 4.28373 16.6969 4.3843 16.431C4.48488 16.1651 4.47447 15.8703 4.35539 15.6113C4.23632 15.3535 4.01782 15.1546 3.75074 15.0587C3.48368 14.9627 3.18888 14.9777 2.93222 15.1014L1.00845 15.9893C0.75179 16.1073 0.552928 16.3223 0.455822 16.587C0.358707 16.8529 0.371425 17.1454 0.490506 17.4009C0.60845 17.6564 0.82464 17.8541 1.08823 17.9501ZM23.0465 8.06312L21.1227 8.95102C20.5921 9.19726 19.962 8.96836 19.7134 8.44C19.5943 8.18334 19.5828 7.8897 19.6799 7.62495C19.7782 7.36021 19.9782 7.14517 20.2348 7.02725L22.1586 6.13935C22.6789 5.94629 23.2604 6.18677 23.4928 6.69082C23.7263 7.19488 23.5309 7.79259 23.0465 8.06312ZM15.9847 23.0449L15.0968 21.1211C14.8506 20.5905 15.0795 19.9616 15.609 19.713C15.8645 19.5939 16.157 19.5823 16.4217 19.6806C16.6853 19.7777 16.9003 19.9766 17.0171 20.2332L17.905 22.157C18.0414 22.4148 18.0657 22.7166 17.9721 22.9917C17.8796 23.2669 17.6773 23.4923 17.4137 23.6137C17.1489 23.7363 16.8472 23.7444 16.5767 23.6368C16.3061 23.5293 16.0922 23.3154 15.9847 23.0449ZM0.0987219 8.48034C0.2178 8.73584 0.432836 8.93237 0.697577 9.02835L2.69188 9.75323C3.24335 9.95324 3.85147 9.66999 4.05145 9.11969C4.25146 8.57052 3.96821 7.96241 3.41791 7.76127L1.42361 7.03639C1.15886 6.93928 0.867522 6.95199 0.612015 7.07108C0.357669 7.189 0.159988 7.40519 0.0651613 7.66993C-0.0319169 7.9335 -0.0203565 8.22599 0.0987219 8.48034ZM20.6314 16.283C20.3667 16.1871 20.1505 15.9905 20.0325 15.735C19.9135 15.4795 19.9007 15.1882 19.9978 14.9246C20.0938 14.6598 20.2903 14.4437 20.5458 14.3246C20.8002 14.2055 21.0927 14.1939 21.3563 14.291L23.3483 15.0159C23.8708 15.2356 24.1298 15.8264 23.9356 16.3582C23.7425 16.8911 23.1644 17.1779 22.6234 17.0102V17.0114L20.6314 16.283ZM7.76617 20.6182C7.8633 20.3558 8.05982 20.1431 8.31417 20.0263C8.56853 19.9095 8.85871 19.8991 9.1211 19.9962C9.66678 20.1951 9.94887 20.7963 9.75464 21.3431L9.02977 23.3351C8.94308 23.6125 8.74769 23.8438 8.48756 23.9733C8.22628 24.1028 7.92454 24.1189 7.6517 24.0195C7.37769 23.9201 7.15804 23.7131 7.04127 23.4472C6.9245 23.1802 6.92219 22.8784 7.03549 22.6102L7.76617 20.6182Z" fill="url(#paint0_linear)"/>
  <defs>
    <linearGradient id="paint0_linear" x1="32.5668" y1="45.5652" x2="35.3778" y2="1.40187" gradientUnits="userSpaceOnUse">
      <stop offset="0.000950169" stop-color="#FAA361"/>
      <stop offset="1" stop-color="#FF97B3"/>
    </linearGradient>
  </defs>
</svg>
