<svg width="40" height="72" viewBox="0 0 40 72" fill="none" xmlns="http://www.w3.org/2000/svg">
  <path d="M11.755 41.9221C11.1412 41.8803 10.611 42.3407 10.5553 42.9545L10.4576 44.2101C10.4157 44.8239 10.8761 45.3541 11.49 45.4099H11.5737C12.1596 45.4099 12.6479 44.9634 12.6897 44.3775L12.7874 43.1219C12.8292 42.5081 12.3689 41.964 11.755 41.9221H11.755Z" fill="#ECEFF5"/>
  <path fill-rule="evenodd" clip-rule="evenodd" d="M4.16575 7.98H4.69589L5.19812 25.6143L5.04466 25.7398C4.70984 26.0328 4.58428 26.5071 4.72379 26.9257C6.37 32.0038 7.70929 33.8593 11.0994 35.45L10.8064 39.5516C10.7645 40.1654 11.2249 40.6956 11.8387 40.7513H11.9225C12.5084 40.7513 12.9967 40.3049 13.0385 39.719L13.4012 34.8362C13.4291 34.3619 13.1641 33.9154 12.7316 33.7341C9.7461 32.4646 8.63003 31.4182 7.09546 26.94L10.081 24.3312L10.7785 23.7174L11.8388 24.373C12.4526 24.7497 13.1501 24.945 13.8616 24.945H18.9119L13.7081 31.5299C13.3315 32.0182 13.4152 32.7157 13.8895 33.0924C14.0988 33.2598 14.3359 33.3296 14.5871 33.3296C14.9219 33.3296 15.2427 33.19 15.466 32.911L19.9163 27.2749L19.6652 32.1717C19.6373 32.7855 20.1117 33.3157 20.7255 33.3435H20.7534H20.7674H20.8371C21.4091 33.3296 21.8974 32.8692 21.9253 32.2832L22.2601 25.2799C24.6038 26.2007 26.3059 28.391 26.543 30.9579V30.9858L27.101 35.8686C27.0452 36.022 27.0313 36.1894 27.0592 36.3568L28.0776 44.4204L28.4822 48.0198L21.0601 50.238L21.6739 37.6266L21.7437 36.3012C21.925 35.8827 21.8274 35.3804 21.4786 35.0596C21.2693 34.8643 21.0043 34.7666 20.7392 34.7526H20.6973C20.2369 34.7247 19.8324 34.9898 19.637 35.3804L16.3586 38.8681C15.9401 39.3146 15.954 40.0261 16.4144 40.4446C16.6237 40.6399 16.9027 40.7515 17.1817 40.7515C17.4747 40.7515 17.7816 40.6399 17.9908 40.4027L19.372 38.9239L18.7442 51.7168V51.7308V51.8284V51.8563C18.7442 51.8772 18.7477 51.8982 18.7512 51.9191C18.7546 51.94 18.7581 51.9609 18.7581 51.9819V51.9958V52.0237C18.7581 52.0516 18.7721 52.0795 18.786 52.1074V52.1214C18.786 52.1353 18.786 52.1353 18.8 52.1493C18.807 52.1632 18.8104 52.1772 18.8139 52.1911C18.8174 52.2051 18.8209 52.219 18.8279 52.233C18.8279 52.2469 18.8279 52.2469 18.8418 52.2609C18.8418 52.2609 18.8418 52.2748 18.8558 52.2748L18.8976 52.3585C18.8976 52.3585 18.8976 52.3725 18.9116 52.3725C18.9534 52.4422 19.0092 52.512 19.065 52.5678L19.079 52.5818L19.1069 52.6097L19.1488 52.6515L22.3714 55.3999C21.7004 55.8839 20.7825 56.5425 19.7442 57.2874L19.7435 57.288L19.7418 57.2892C17.7584 58.7122 15.3365 60.4498 13.3593 61.887C12.857 62.2497 12.7454 62.9473 13.1081 63.4495C13.3314 63.7564 13.6662 63.9099 14.0149 63.9099C14.2381 63.9099 14.4753 63.8401 14.6706 63.7006C17.564 61.6142 21.4017 58.8543 23.4311 57.3949L23.4367 57.3909L23.4441 57.3855L23.4448 57.3851C24.2843 56.7814 24.8107 56.4028 24.827 56.3906C24.8549 56.3767 24.8828 56.3488 24.8968 56.3348L24.9247 56.3069C24.9442 56.2972 24.9568 56.2807 24.9674 56.2669C24.9721 56.2608 24.9763 56.2553 24.9805 56.2511L25.0084 56.2232C25.0363 56.1953 25.0642 56.1535 25.0782 56.1256C25.0782 56.1186 25.0816 56.1151 25.0851 56.1116C25.0886 56.1081 25.0921 56.1046 25.0921 56.0977C25.1061 56.0698 25.12 56.0419 25.1479 56.014L25.1481 56.0116L25.1483 56.01C25.1488 56.0081 25.1495 56.0065 25.1505 56.005L25.1524 56.0026L25.1549 56L25.158 55.9967C25.1602 55.994 25.1619 55.9909 25.1619 55.986L25.2037 55.9023C25.2037 55.8884 25.2177 55.8744 25.2177 55.8744C25.2246 55.8605 25.2281 55.8465 25.2316 55.8326C25.2351 55.8186 25.2386 55.8047 25.2456 55.7907C25.2456 55.7768 25.2456 55.7628 25.2595 55.7628C25.2735 55.7349 25.2735 55.6931 25.2735 55.6512V55.6373C25.2735 55.6163 25.277 55.5954 25.2804 55.5745C25.2839 55.5536 25.2874 55.5326 25.2874 55.5117V55.4978V51.4381L26.6267 51.0614L27.2824 62.4871C27.3103 63.087 27.8125 63.5334 28.3985 63.5334H28.4682C29.0821 63.4915 29.5564 62.9753 29.5145 62.3615L28.8309 50.3222L30.0168 49.9735C30.533 49.82 30.8678 49.3178 30.812 48.7737L29.4448 36.6365L31.7467 34.502L34.4253 37.3899L32.1374 39.7336C31.7049 40.18 31.7188 40.8776 32.1513 41.31C32.5977 41.7425 33.2953 41.7286 33.7277 41.2961L36.7551 38.199C37.1736 37.7665 37.1736 37.0969 36.769 36.6644L32.5978 32.1722C32.4024 31.949 32.1234 31.8235 31.8165 31.8095C31.5235 31.7956 31.2305 31.9072 31.0213 32.1025L29.11 33.8743L28.7612 30.8051C28.4124 27.1918 25.9292 24.1644 22.5391 23.0765C22.8321 22.5463 22.9856 21.9465 22.9856 21.3047V20.7467H25.3433C25.9571 20.7467 26.4593 20.2444 26.4593 19.6306C26.4593 19.0167 25.9571 18.5145 25.3433 18.5145H22.9856V18.1378C22.9856 17.9146 22.9716 17.7054 22.9297 17.4961L25.5107 14.9152C25.9432 14.4827 25.9432 13.7712 25.5107 13.3387C25.0782 12.9063 24.3667 12.9063 23.9342 13.3387L21.8137 15.4593C21.4091 15.0826 20.9208 14.7897 20.3907 14.6222V11.5112C20.3907 10.8973 19.8884 10.3951 19.2746 10.3951C18.6608 10.3951 18.1585 10.8973 18.1585 11.5112V14.6082C17.6563 14.7617 17.1959 15.0268 16.8192 15.3755L14.7824 13.3387C14.3499 12.9062 13.6384 12.9062 13.206 13.3387C12.7735 13.7712 12.7735 14.4827 13.206 14.9151L15.6613 17.3705C15.6055 17.6216 15.5776 17.8727 15.5776 18.1377V18.4586C15.5218 18.4447 15.48 18.4447 15.4242 18.4447H12.0759C11.4621 18.4447 10.9738 18.9329 10.9599 19.5468L9.85773 7.98181H10.1507C10.7645 7.98181 11.2668 7.47958 11.2668 6.86574C11.2668 6.36351 10.9319 5.94495 10.4855 5.80545C10.5134 5.59619 10.5273 5.37297 10.5273 5.16371C10.5273 3.16871 9.45312 1.29928 7.72319 0.308778C7.37442 0.113464 6.95591 0.113464 6.60712 0.308778C4.87719 1.31321 3.80298 3.16871 3.80298 5.16371C3.80298 5.38692 3.81693 5.59619 3.84483 5.80545C3.3984 5.94496 3.06354 6.37744 3.06354 6.86574C3.04959 7.49353 3.55182 7.98181 4.16569 7.98181L4.16575 7.98ZM23.0415 53.0136L22.1625 52.2602L23.0415 52.0091V53.0136ZM7.37425 23.7029L8.97861 22.3079L8.23924 14.7182L7.86257 14.8158C7.67234 14.8581 7.47413 14.9084 7.29216 14.9545L7.29199 14.9546C7.23378 14.9693 7.17723 14.9837 7.12314 14.9972L7.37425 23.7029ZM17.8093 21.2476V18.1365C17.8093 17.3274 18.465 16.6716 19.2742 16.6716C20.0833 16.6716 20.739 17.3273 20.739 18.1365V21.2476C20.739 22.0567 20.0833 22.7124 19.2742 22.7124C18.465 22.7124 17.8093 22.0567 17.8093 21.2476ZM15.4238 20.6895H12.0755L12.0755 20.6896C11.5454 20.6896 11.099 20.299 10.9874 19.7967L11.1269 21.3313C11.1687 21.3453 11.1966 21.3592 11.2385 21.3871L12.9963 22.4753C13.2474 22.6287 13.5404 22.7124 13.8473 22.7124H15.8841C15.6888 22.266 15.5772 21.7638 15.5772 21.2476V20.6756C15.5354 20.6895 15.4796 20.6895 15.4238 20.6895ZM8.04375 12.4867C7.70893 12.5704 7.37411 12.6541 7.06718 12.7238L6.92768 7.98056H7.61127L8.04375 12.4867ZM8.2809 5.16253C8.2809 4.18596 7.86239 3.27913 7.1509 2.63739H7.15088C6.43941 3.26525 6.02088 4.18596 6.02088 5.16253C6.02088 5.30204 6.03483 5.45551 6.04878 5.60896H8.253C8.26695 5.46946 8.2809 5.31599 8.2809 5.16253Z" fill="#ECEFF5"/>
  <path d="M38.7357 69.1964H5.89502V67.606H35.22C35.8339 67.606 36.3361 67.1038 36.3361 66.4899C36.3361 65.8761 35.8339 65.3739 35.22 65.3739H25.2729V60.6026C25.2729 59.9888 24.7707 59.4866 24.1568 59.4866C23.543 59.4866 23.0407 59.9888 23.0407 60.6026V65.3739H20.962V63.6858C20.962 63.0719 20.4598 62.5697 19.846 62.5697C19.2321 62.5697 18.7299 63.0719 18.7299 63.6858V65.3739H11.1549L11.8664 55.5803L17.7955 49.2745C18.214 48.8281 18.2001 48.1166 17.7397 47.6981C17.2933 47.2795 16.5818 47.2935 16.1633 47.7539L12.1315 52.0368L12.4384 47.8655C12.4803 47.2517 12.0199 46.7215 11.4061 46.6657C10.7922 46.6239 10.2621 47.0843 10.2063 47.6981L8.90885 65.3602H4.77942C4.16558 65.3602 3.66335 65.8625 3.66335 66.4763V69.1967H1.26378C0.649934 69.1967 0.147705 69.699 0.147705 70.3128C0.147705 70.9266 0.649934 71.4289 1.26378 71.4289H4.36085C4.4864 71.4847 4.62591 71.5126 4.77938 71.5126H35.2201C35.3735 71.5126 35.5131 71.4847 35.6386 71.4289H38.7357C39.3495 71.4289 39.8518 70.9266 39.8518 70.3128C39.8518 69.699 39.3635 69.1967 38.7357 69.1967L38.7357 69.1964Z" fill="#ECEFF5"/>
  <path d="M25.2735 45.4379V38.574C25.2735 37.9602 24.7713 37.4579 24.1575 37.4579C23.5436 37.4579 23.0414 37.9602 23.0414 38.574V45.4379C23.0414 46.0517 23.5436 46.5539 24.1575 46.5539C24.7713 46.5539 25.2735 46.0517 25.2735 45.4379Z" fill="#ECEFF5"/>
</svg>
