<svg width="56" height="47" viewBox="0 0 56 47" fill="none" xmlns="http://www.w3.org/2000/svg">
  <path fill-rule="evenodd" clip-rule="evenodd" d="M53.6586 39.7357H54.8285L54.828 39.7353C55.4732 39.7353 55.9978 40.2599 56 40.903V45.5845C56 46.2298 55.4754 46.7544 54.8302 46.7544H3.32396C2.67869 46.7544 2.15413 46.2298 2.15413 45.5845V40.903C2.15413 40.2577 2.6787 39.7331 3.32396 39.7331H4.49379V36.2214C4.49379 35.5761 5.01836 35.0516 5.66362 35.0516H6.19915C4.85615 30.3307 2.84126 26.1628 0.262355 22.9824C-0.0295578 22.6247 -0.0822339 22.1286 0.126273 21.716C0.334786 21.3034 0.762757 21.0093 1.22587 21.0773C5.55851 21.2836 9.80321 22.4995 13.6552 24.5913C12.3626 19.4119 10.2138 14.7761 7.31887 11.2073C7.02696 10.8496 6.97428 10.3535 7.18279 9.94091C7.3913 9.53048 7.84122 9.23199 8.28238 9.30222C14.6676 9.60732 20.6615 11.9887 25.523 16.0425C24.2545 10.5485 22.0245 5.65187 18.9935 1.91409C18.6994 1.55634 18.6467 1.05811 18.8552 0.647674C19.0637 0.235059 19.5004 -0.0480741 19.957 0.0067966C34.6647 0.715886 46.5321 12.4209 47.6559 26.9528C49.9472 26.257 52.3242 25.8071 54.7692 25.6907C55.2169 25.6183 55.6603 25.919 55.8688 26.3294C56.0773 26.7421 56.0225 27.2381 55.7327 27.5958C54.0537 29.6659 52.5942 32.1833 51.3629 35.052L52.4888 35.0541C53.1341 35.0541 53.6586 35.5787 53.6586 36.224V39.7357ZM48.8058 35.0519C49.8176 32.5412 51.0007 30.2695 52.3373 28.27L52.3375 28.2698C50.496 28.5354 48.705 28.9985 46.9798 29.6241C45.9702 29.9928 44.9825 30.423 44.0234 30.9103C44.0004 30.9223 43.9769 30.9344 43.9533 30.9464L43.9502 30.948C43.9276 30.9596 43.905 30.9711 43.8829 30.9827C42.0151 31.9418 40.2593 33.1292 38.6483 34.501C38.6048 34.5382 38.5611 34.5744 38.5173 34.6105L38.5173 34.6105C38.4528 34.6638 38.3884 34.7169 38.3256 34.7732C38.2762 34.8182 38.2301 34.8654 38.184 34.9126C38.1379 34.9597 38.0919 35.0069 38.0425 35.0519H48.8058ZM22.3954 2.59054C34.9259 4.40349 44.6952 14.9322 45.3976 27.7216C45.3255 27.7488 45.2572 27.783 45.1887 27.8173C45.1299 27.8468 45.0709 27.8763 45.0091 27.9016C44.2387 28.2199 43.4793 28.5689 42.7374 28.9529C42.5223 29.0649 42.3116 29.179 42.0987 29.2975C41.3964 29.6838 40.7094 30.0987 40.0378 30.5464C39.8073 30.6979 39.579 30.8493 39.3552 31.0073C38.7429 31.4375 38.148 31.8984 37.5642 32.3791C37.4969 32.4343 37.4292 32.4891 37.3616 32.544L37.3614 32.5441C37.1732 32.6966 36.9849 32.8493 36.8026 33.009C36.2846 33.4634 35.7929 33.9506 35.3035 34.4445C35.2122 34.5367 35.1171 34.6239 35.0221 34.711L35.0221 34.711L35.0221 34.7111L35.0221 34.7111L35.022 34.7112C34.9001 34.823 34.7783 34.9347 34.6648 35.0568L28.4207 35.0546C28.5162 34.4745 28.5784 33.8858 28.6406 33.2968L28.6407 33.296C28.6613 33.1008 28.6819 32.9055 28.7038 32.7105C28.7247 32.5213 28.7497 32.3326 28.7748 32.1437C28.8076 31.8965 28.8404 31.649 28.864 31.4002C28.9979 29.8945 29.0791 28.3801 29.0791 26.8613C29.0791 25.608 29.0242 24.3702 28.9386 23.1432C28.9269 22.9846 28.9101 22.8278 28.8933 22.6712C28.8788 22.5354 28.8643 22.3997 28.853 22.2631C28.7718 21.3281 28.6709 20.4019 28.5392 19.4888C28.5315 19.434 28.526 19.3786 28.5205 19.3231C28.515 19.2677 28.5095 19.2123 28.5019 19.1574C28.5007 19.146 28.4942 19.1369 28.4876 19.1277C28.4815 19.1193 28.4754 19.1108 28.4733 19.1004C27.5142 12.8495 25.4379 7.12562 22.3961 2.5907L22.3954 2.59054ZM26.2364 19.8683C22.042 15.5115 16.6188 12.7307 10.7213 11.8857L10.721 11.886C14.8231 17.9942 17.2089 26.2358 17.3911 35.0522L26.0125 35.0566C26.1398 34.2994 26.243 33.5334 26.3374 32.763C26.3611 32.5644 26.3888 32.3668 26.4165 32.1692L26.4165 32.1692L26.4165 32.1691L26.4166 32.169C26.4605 31.8556 26.5044 31.5421 26.5327 31.2244C26.6468 29.936 26.7039 28.6389 26.7149 27.3395C26.7149 27.2581 26.7199 27.1782 26.7248 27.0987C26.7297 27.0197 26.7346 26.9409 26.7346 26.8611C26.7346 25.7395 26.6907 24.6179 26.6161 23.5029C26.6139 23.4745 26.6134 23.4466 26.6128 23.419C26.6123 23.3912 26.6117 23.3637 26.6095 23.3361C26.5239 22.1662 26.401 21.0118 26.2364 19.8683ZM3.66691 23.6632C7.41789 24.2141 11.0438 25.5749 14.2965 27.6688C14.5072 28.8518 14.6696 30.0326 14.7925 31.2112C14.7969 31.2584 14.8024 31.3051 14.8079 31.3517C14.8134 31.3984 14.8189 31.445 14.8233 31.4922C14.9133 32.3943 14.955 33.2876 14.9945 34.1809C14.9976 34.2643 15.0011 34.3477 15.0046 34.4311L15.0046 34.4312C15.0133 34.6397 15.0221 34.8482 15.0252 35.0566L8.67541 35.0544C7.52092 30.7592 5.81113 26.883 3.66678 23.6635L3.66691 23.6632ZM4.49455 44.4178H53.6589L53.6566 42.0759H52.4868C51.8415 42.0759 51.317 41.5514 51.317 40.9061V37.3944H6.83421V40.9061C6.83421 41.5514 6.30964 42.0759 5.66438 42.0759H4.49455V44.4178Z" fill="#ECEFF5"/>
</svg>
